# xmcd
# Track frame offsets:
# 150
# 15582
# 30587
# 45617
# 64850
# 78242
# 93162
# 109125
# 126850
# 141140
#
# Disc length: 2064 seconds
# Revision: 0
# Processed by: cddbd v1.5.2PL0 Copyright (c) Steve Scherf et al.
# Submitted via: VisiTrax 2.10.3.257 - For more info visit www.synapsa.com
#
DISCID=79080e0a
DTITLE=Greenwood, Lee - Christmas To Christmas
DYEAR=1985
DGENRE=Christmas
TTITLE0=Let It Snow,Let Snow,Let It Snow
TTITLE1=Christmas To Christmas
TTITLE2=When The Rain Turns To Snow
TTITLE3=Tennessee Christmas
TTITLE4=I'll Be Home For Christmas
TTITLE5=Lone Star Christmas
TTITLE6=The Greatest Gift Of All
TTITLE7=Bring Christmas Home
TTITLE8=The Christmas Song
TTITLE9=On Holy Night
EXTD=
EXTT0=
EXTT1=
EXTT2=
EXTT3=
EXTT4=
EXTT5=
EXTT6=
EXTT7=
EXTT8=
EXTT9=
PLAYORDER=
